<?xml version="1.0" encoding="UTF-8"?>
<svg id="Layer_1" xmlns="http://www.w3.org/2000/svg" version="1.1" viewBox="0 0 1024 1024">
  <!-- Generator: Adobe Illustrator 29.7.1, SVG Export Plug-In . SVG Version: 2.1.1 Build 8)  -->
  <defs>
    <style>
      .st0 {
        stroke: #000;
      }

      .st0, .st1 {
        fill: none;
        stroke-miterlimit: 10;
      }

      .st2 {
        fill: #8B5CF6;
      }

      .st1 {
        stroke: #fff;
      }

      .st3 {
        fill: #A855F7;
      }
    </style>
  </defs>
  <g>
    <path class="st2" d="M499.22,744.36v-52.07h41.29v52.07c116.93-8.16,219.29-94.42,237-211.86h-71.82c9-31.81,14.17-63.92,8.99-96.95h163.37c2.96,69.85-5.29,138.59-33.28,202.82-44.95,103.15-144.61,181.72-255.37,202.46-5.97,1.12-37.71,3.84-39.13,5.83.24,10.37,3.51,22.69,1.01,32.34,30.18,1.08,64.59,7.36,91.95,20.28,13.26,6.27,26.1,14.13,31.94,28.21h-310.61c7.1-15.59,18.38-22.06,33.64-28.31,27.41-11.23,60.83-17.03,90.26-18.37l1.79-35.92c-134.4-12.84-261.86-102.25-314.52-226.8-71.64-169.45-13.41-367.24,142.29-465.19,145.33-91.43,333.39-68.28,459.46,44.75l-70.87,72.39c-28.21-23.37-59.6-43.77-94.36-56.15-163.62-58.25-334.22,42.32-363.82,212.34-28.27,162.39,90.77,302.7,250.79,318.12Z"/>
    <path class="st3" d="M668.35,365.15c2.08,1.17,6.31-.06,9.07.79,15.16,4.63,24.17,15.89,20.67,32.4-1,4.7-6.61,9.75-6.7,12.95-.07,2.76,6.58,19.06,7.73,24.54,7.01,33.41,2.66,63.54-8.22,95.35-1.55,4.54-8,15.26-8.2,18.69-.13,2.33,3.84,6.87,4.61,10.87,2.71,14.08-2.9,30.26-18.54,32.68-5.57.86-16.4-1.78-18.7-.82-2.87,1.2-13.02,13.7-17.16,17.06-22.58,18.33-52.25,31.62-81.39,34.41-6,34.67-58.91,35.86-63.31-.03-35.41-5.4-67.04-21.89-92.23-46.91-3.22-3.19-11.15-15.61-13.48-17.04-6.74-4.12-16.34,3.92-27.88-8.03-8.76-9.07-13.11-24.17-7-35.85,1.58-3.01,5.76-4.12,6.19-8.25.47-4.54-5.4-16.23-6.68-22.03-4.17-18.9-5.75-40.96-3.91-60.29.97-10.2,8.21-26.93,8.26-34.68.07-10.51-13.18-17.77-2.82-35.29,8.52-14.41,20.69-9.86,29.47-15.42,3.44-2.18,8.87-12.41,12.43-16.3,17.34-18.9,41.12-35.57,65.63-43.89,6.72-2.28,35.51-7.33,37.22-8.56,1.24-.89,3.07-8.41,5.76-11.31,9.61-10.35,31.02-10.73,42.24-2.66,5.63,4.05,7.85,11.9,9.9,13.44,1.65,1.25,32.44,7.45,39.95,10.32,24.05,9.2,48.15,26.86,65.08,46.24,2.78,3.18,11.09,17.07,12.01,17.6ZM640.72,395.69c.68-9.44,4.95-16.78,10.81-23.9-27.94-30.21-59.06-56.04-100.97-63.43-4.62,3.93-6.16,10.2-10.92,14.1-4.34,3.55-13.03,4.71-14.94,8.4l-18.34,92.87c7.88,1.72,11.63,14.04,18.42,13.34l115.93-41.37ZM493.53,311.9c-40.81,4.57-73.73,30.44-100.06,60.16,6.6,5.18,5.43,22.42,7.31,25.49,1.35,2.2,40.1,19.39,46.41,22.7s12.03,8.81,19.13,11.37l22.14-11.32,19.87-91.67-14.8-16.73ZM522.77,469.44l120.18,74.79,20.26-3.03c7.43-2.3,16.62-49.24,17.31-58.1.99-12.9.08-48.22-5.18-59.4-3.12-6.63-9.05-3.65-16.01-5.53-5.92-1.59-9.9-6.87-12.37-7.51-3.06-.8-31.68,13.11-37.77,15.47-26.63,10.3-53.87,19.18-80.78,28.75-4.14,1.02-7.25,12.05-5.64,14.57ZM459.35,446.67l-63.66-34.18c-8.45,5.3-15.86,7.17-25.85,7.68-9.26,32.28-6.9,69.23,2.08,101.38,6.9-2.54,18.94,4.81,23.11,2.93,2.46-1.11,8.59-9.04,11.78-11.69,18.08-14.97,37.51-28.32,55.72-43.15l-3.18-22.97ZM549.56,627.64c25.44-7.67,54.36-18.02,74.39-35.94,2.33-2.08,10.96-9.94,11.44-11.98.82-3.53-1.79-21.96-5.16-24.73-8.9-7.3-29.07-16.13-40-22.84s-76.06-51.74-80.83-51.33c-2.18.19-5.56,2.88-8.09,3.48l21.18,120.62c12.79,2.85,24.22,8.62,27.07,22.71ZM473.44,482.51l-69.53,56.24c-2.18,3.48,1.78,9.19,1.51,13.95-.3,5.1-4.79,11.28-4.82,14.81-.03,3.92,10.8,16.47,14.18,19.81,18.83,18.63,47.15,31.18,72.79,36.81l18.48-18.48c-9.72-38.4-16.48-77.54-21.49-116.84l-11.12-6.3Z"/>
  </g>
  <path class="st0" d="M585.77,584.28"/>
  <path class="st1" d="M606.57,640.28"/>
  <path class="st1" d="M537.25,613.89"/>
  <path class="st1" d="M537.25,593.02"/>
  <path class="st1" d="M519.68,593.02"/>
  <path class="st1" d="M519.68,640.28"/>
  <path class="st1" d="M605.89,640.28"/>
</svg>